HIERARCHY
ROOT hip
{
  OFFSET 0 0 0
  CHANNELS 6 Xposition Yposition Zposition Zrotation Yrotation Xrotation
  JOINT abdomen
  {
    OFFSET 0 20.6881 -0.73152
    CHANNELS 3 Zrotation Xrotation Yrotation
    JOINT chest
    {
      OFFSET 0 11.7043 -0.48768
      CHANNELS 3 Zrotation Xrotation Yrotation
      JOINT neck
      {
        OFFSET 0 22.1894 -2.19456
        CHANNELS 3 Zrotation Xrotation Yrotation
        JOINT head
        {
          OFFSET -0.24384 7.07133 1.2192
          CHANNELS 3 Zrotation Xrotation Yrotation
          JOINT leftEye
          {
            OFFSET 4.14528 8.04674 8.04672
            CHANNELS 3 Zrotation Xrotation Yrotation
            End Site
            {
              OFFSET 1 0 0
            }
          }
          JOINT rightEye
          {
            OFFSET -3.6576 8.04674 8.04672
            CHANNELS 3 Zrotation Xrotation Yrotation
            End Site
            {
              OFFSET 1 0 0
            }
          }
        }
      }
      JOINT rCollar
      {
        OFFSET -2.68224 19.2634 -4.8768
        CHANNELS 3 Zrotation Xrotation Yrotation
        JOINT rShldr
        {
          OFFSET -8.77824 -1.95073 1.46304
          CHANNELS 3 Zrotation Xrotation Yrotation
          JOINT rForeArm
          {
            OFFSET -28.1742 -1.7115 0.48768
            CHANNELS 3 Zrotation Xrotation Yrotation
            JOINT rHand
            {
              OFFSET -22.5879 0.773209 7.07136
              CHANNELS 3 Zrotation Xrotation Yrotation
              JOINT rThumb1
              {
                OFFSET -1.2192 -0.487915 3.41376
                CHANNELS 3 Zrotation Xrotation Yrotation
                JOINT rThumb2
                {
                  OFFSET -3.37035 -0.52449 3.41376
                  CHANNELS 3 Zrotation Xrotation Yrotation
                  End Site
                  {
                    OFFSET -1.78271 -1.18214 1.43049
                  }
                }
              }
              JOINT rIndex1
              {
                OFFSET -7.75947 0.938293 5.60832
                CHANNELS 3 Zrotation Xrotation Yrotation
                JOINT rIndex2
                {
                  OFFSET -2.54057 -0.884171 1.56538
                  CHANNELS 3 Zrotation Xrotation Yrotation
                  End Site
                  {
                    OFFSET -1.62519 -0.234802 1.16502
                  }
                }
              }
              JOINT rMid1
              {
                OFFSET -8.24714 1.18213 3.41376
                CHANNELS 3 Zrotation Xrotation Yrotation
                JOINT rMid2
                {
                  OFFSET -3.10165 -0.590103 1.0647
                  CHANNELS 3 Zrotation Xrotation Yrotation
                  End Site
                  {
                    OFFSET -2.48547 -0.328903 0.83742
                  }
                }
              }
              JOINT rRing1
              {
                OFFSET -8.82822 0.546677 1.51678
                CHANNELS 3 Zrotation Xrotation Yrotation
                JOINT rRing2
                {
                  OFFSET -2.60934 -0.819778 -0.0198488
                  CHANNELS 3 Zrotation Xrotation Yrotation
                  End Site
                  {
                    OFFSET -2.33842 -0.294052 0.168128
                  }
                }
              }
              JOINT rPinky1
              {
                OFFSET -8.27202 -0.0477905 -0.4584
                CHANNELS 3 Zrotation Xrotation Yrotation
                JOINT rPinky2
                {
                  OFFSET -1.82734 -0.647385 -0.700984
                  CHANNELS 3 Zrotation Xrotation Yrotation
                  End Site
                  {
                    OFFSET -1.69225 -0.51767 -0.607171
                  }
                }
              }
            }
          }
        }
      }
      JOINT lCollar
      {
        OFFSET 2.68224 19.2634 -4.8768
        CHANNELS 3 Zrotation Xrotation Yrotation
        JOINT lShldr
        {
          OFFSET 8.77824 -1.95073 1.46304
          CHANNELS 3 Zrotation Xrotation Yrotation
          JOINT lForeArm
          {
            OFFSET 28.1742 -1.7115 0.48768
            CHANNELS 3 Zrotation Xrotation Yrotation
            JOINT lHand
            {
              OFFSET 22.5879 0.773209 7.07136
              CHANNELS 3 Zrotation Xrotation Yrotation
              JOINT lThumb1
              {
                OFFSET 1.2192 -0.487915 3.41376
                CHANNELS 3 Zrotation Xrotation Yrotation
                JOINT lThumb2
                {
                  OFFSET 3.37035 -0.52449 3.41376
                  CHANNELS 3 Zrotation Xrotation Yrotation
                  End Site
                  {
                    OFFSET 1.78271 -1.18214 1.43049
                  }
                }
              }
              JOINT lIndex1
              {
                OFFSET 7.75947 0.938293 5.60832
                CHANNELS 3 Zrotation Xrotation Yrotation
                JOINT lIndex2
                {
                  OFFSET 2.54057 -0.884171 1.56538
                  CHANNELS 3 Zrotation Xrotation Yrotation
                  End Site
                  {
                    OFFSET 1.62519 -0.234802 1.16502
                  }
                }
              }
              JOINT lMid1
              {
                OFFSET 8.24714 1.18213 3.41376
                CHANNELS 3 Zrotation Xrotation Yrotation
                JOINT lMid2
                {
                  OFFSET 3.10165 -0.590103 1.0647
                  CHANNELS 3 Zrotation Xrotation Yrotation
                  End Site
                  {
                    OFFSET 2.48547 -0.328903 0.83742
                  }
                }
              }
              JOINT lRing1
              {
                OFFSET 8.82822 0.546677 1.51678
                CHANNELS 3 Zrotation Xrotation Yrotation
                JOINT lRing2
                {
                  OFFSET 2.60934 -0.819778 -0.0198488
                  CHANNELS 3 Zrotation Xrotation Yrotation
                  End Site
                  {
                    OFFSET 2.33842 -0.294052 0.168128
                  }
                }
              }
              JOINT lPinky1
              {
                OFFSET 8.27202 -0.0477905 -0.4584
                CHANNELS 3 Zrotation Xrotation Yrotation
                JOINT lPinky2
                {
                  OFFSET 1.82734 -0.647385 -0.700984
                  CHANNELS 3 Zrotation Xrotation Yrotation
                  End Site
                  {
                    OFFSET 1.69225 -0.51767 -0.607171
                  }
                }
              }
            }
          }
        }
      }
    }
  }
  JOINT rButtock
  {
    OFFSET -8.77824 4.35084 1.2192
    CHANNELS 3 Zrotation Xrotation Yrotation
    JOINT rThigh
    {
      OFFSET 0 -1.70687 -2.19456
      CHANNELS 3 Zrotation Xrotation Yrotation
      JOINT rShin
      {
        OFFSET 0 -36.8199 0.73152
        CHANNELS 3 Zrotation Xrotation Yrotation
        JOINT rFoot
        {
          OFFSET 0.73152 -45.1104 -5.12064
          CHANNELS 3 Zrotation Xrotation Yrotation
          End Site
          {
            OFFSET -1.1221 -3.69964 12.103
          }
        }
      }
    }
  }
  JOINT lButtock
  {
    OFFSET 8.77824 4.35084 1.2192
    CHANNELS 3 Zrotation Xrotation Yrotation
    JOINT lThigh
    {
      OFFSET 0 -1.70687 -2.19456
      CHANNELS 3 Zrotation Xrotation Yrotation
      JOINT lShin
      {
        OFFSET 0 -36.8199 0.73152
        CHANNELS 3 Zrotation Xrotation Yrotation
        JOINT lFoot
        {
          OFFSET -0.73152 -45.1104 -5.12064
          CHANNELS 3 Zrotation Xrotation Yrotation
          End Site
          {
            OFFSET 1.1221 -3.69964 12.103
          }
        }
      }
    }
  }
}
MOTION
Frames:	4
Frame Time:	0.03333
0.0 0.0 0.0 0.0 0.0 0.0 0.0 0.0 0.0 0.0 0.0 0.0 0.0 0.0 0.0 0.0 0.0 0.0 0.0 0.0 0.0 0.0 0.0 0.0 0.0 0.0 0.0 0.0 0.0 0.0 0.0 0.0 0.0 0.0 0.0 0.0 0.0 0.0 0.0 0.0 0.0 0.0 0.0 0.0 0.0 0.0 0.0 0.0 0.0 0.0 0.0 0.0 0.0 0.0 0.0 0.0 0.0 0.0 0.0 0.0 0.0 0.0 0.0 0.0 0.0 0.0 0.0 0.0 0.0 0.0 0.0 0.0 0.0 0.0 0.0 0.0 0.0 0.0 0.0 0.0 0.0 0.0 0.0 0.0 0.0 0.0 0.0 0.0 0.0 0.0 0.0 0.0 0.0 0.0 0.0 0.0 0.0 0.0 0.0 0.0 0.0 0.0 0.0 0.0 0.0 0.0 0.0 0.0 0.0 0.0 0.0 0.0 0.0 0.0 0.0 0.0 0.0 0.0 0.0 0.0 0.0 0.0 0.0 0.0 0.0 0.0 0.0 0.0 0.0 0.0 0.0 0.0
-0.44260000000000005 68.9425 0.366 0.972163 -60.821722 -1.250757 -0.092577 -3.86182 162.065604 -8.235752 -4.868556 94.133715 11.486253 -6.432153 100.025678 21.481207 50.809209 141.43468 46.625256 5.144473 11.90312 153.666069 -9.122913 37.662101 -16.072887 66.700537 93.82527 37.324343 -68.057033 26.054659 159.747065 -75.086918 -36.736692 3.883381 34.12082 -6.593532 176.29515 -29.739406 100.227343 -24.282687 -26.591662 42.0175 173.622003 46.686659 56.233754 17.692765 -1.023716 86.903641 -53.725933 -16.310272 -133.940956 113.103002 83.60664 28.874929 -88.842327 -48.036972 95.409936 63.140109 15.268209 -162.332483 73.910479 46.419644 136.013047 30.532556 -33.529136 -60.382444 -56.721766 49.232342 -19.416933 -12.055339 1.212433 -15.178097 2.839401 -7.004882 -159.992425 -157.856518 -33.126792 -139.85428 108.325488 67.635471 -59.783794 -108.521363 36.264924 163.414531 37.348891 59.302613 100.098302 -74.799646 -1.682348 -137.400948 31.416216 21.670456 68.238521 -7.470229 11.268513 -163.221224 -62.319775 -57.071989 80.622168 -158.3234 31.915309 85.862367 -43.428948 -5.231963 -177.408615 32.667588 -40.17259 -178.337657 34.763952 -22.814496 46.086053 -12.707888 40.443944 -0.0 -5.776482 -4.504977 -48.990875 -74.38327 26.772712 95.991309 -0.229082 -42.720528 0.0 0.241012 42.076704 -180.0 -2.075651 -7.01299 -33.448641 -77.753084 3.721922 92.944757
0.24819999999999998 69.1861 -0.10490000000000001 -170.854762 -55.36283 179.806284 -2.688747 -14.384773 -10.704488 1.493061 8.122646 5.309213 -2.006849 3.622075 169.775818 -9.687689 5.251367 -127.137815 -24.972511 -5.633105 25.051793 66.883201 26.940171 39.870193 -169.073165 -5.832385 152.490777 -116.117055 6.827692 -159.908356 -0.330805 -62.157106 48.030875 36.084501 -64.81393 21.859185 -146.017571 10.948167 124.736342 -4.683153 7.444295 -13.234875 -148.048758 42.554256 90.452033 152.969796 -1.214001 64.483873 -20.275463 17.83922 3.482584 -162.8492 -5.548522 140.320583 -96.240181 36.783804 87.117169 -145.504301 -70.931277 151.850407 -103.256315 65.469342 145.688043 78.49456 41.874613 -53.680619 131.797515 -31.143003 169.685828 140.677042 -11.110622 170.120279 30.06272 -33.314561 -39.201249 2.430605 -7.988699 7.623885 90.491199 53.39187 -54.01357 -138.366038 -72.18923 -102.944209 62.127725 36.82321 -30.580221 -98.089291 -41.865115 -53.744654 -59.238533 -48.109042 -39.354714 24.247389 64.004306 23.26103 -9.709158 -63.479983 -12.352169 79.38301 -50.38351 101.240488 -30.070099 -3.169076 9.064726 -168.418402 19.03339 -174.404651 135.592883 78.220243 45.016856 -171.301798 52.826049 -6.84576 -7.888288 28.705213 -66.254167 130.428578 -80.089119 -101.693224 33.659378 41.837837 71.092985 -55.94323 -7.439742 95.002035 23.825334 -38.851491 -78.69965 150.539372 -67.30988 18.772993
0.5772 69.42099999999999 -2.7497000000000003 -167.724954 -61.608332 173.297328 -9.117122 -14.822871 -180.0 0.748903 -1.198414 163.962205 1.373967 9.753429 106.195871 -20.482846 19.370552 -99.615156 171.692431 -5.579128 67.717286 174.04501 2.559516 -46.48654 -53.936087 52.30124 63.029278 143.772527 32.655581 -158.681251 20.901493 -68.674799 -85.734741 -165.863624 27.999187 122.868359 -70.182855 29.42182 51.416511 89.145052 72.804985 -57.860414 -11.1332 -19.749448 -26.53575 -151.126051 -20.369063 55.721421 -176.971929 -0.82099 79.492022 -163.810592 0.054801 81.827934 -84.345795 33.087199 79.581396 -50.745796 -81.622353 -79.620859 -54.059588 31.175878 54.872707 176.159128 30.34384 86.472136 73.231712 87.156445 -72.140236 -157.342376 -15.185439 -160.138153 45.211785 67.248989 -108.594679 -9.132253 -18.574599 -6.165156 -89.354156 -51.777472 -53.028546 104.085642 22.400873 -9.144634 152.104398 -82.209697 149.532167 9.413009 3.397998 73.578689 9.341385 31.063303 -14.457474 132.89005 -30.994221 160.861988 93.167584 0.663914 -42.583617 44.651876 -2.336916 -177.647954 28.04492 -66.465854 85.646013 -31.009376 36.587626 -144.139455 -105.683443 17.293928 -42.925156 119.530643 9.139958 13.753421 7.936179 51.321542 -149.608483 -74.618372 66.553222 157.230411 -24.695655 1.207966 36.789734 53.248903 -34.322215 38.059436 37.442144 36.960937 21.12309 -170.304629 -48.483719 71.408013
